<svg width="11" height="11" viewBox="0 0 11 11" fill="none" xmlns="http://www.w3.org/2000/svg">
<path d="M7.33366 5.91249V7.83749C7.33366 9.44166 6.69199 10.0833 5.08783 10.0833H3.16283C1.55866 10.0833 0.916992 9.44166 0.916992 7.83749V5.91249C0.916992 4.30832 1.55866 3.66666 3.16283 3.66666H5.08783C6.69199 3.66666 7.33366 4.30832 7.33366 5.91249Z" stroke="white" stroke-linecap="round" stroke-linejoin="round"/>
<path d="M10.0837 3.16249V5.08749C10.0837 6.69166 9.44199 7.33332 7.83783 7.33332H7.33366V5.91249C7.33366 4.30832 6.69199 3.66666 5.08783 3.66666H3.66699V3.16249C3.66699 1.55832 4.30866 0.916656 5.91283 0.916656H7.83783C9.44199 0.916656 10.0837 1.55832 10.0837 3.16249Z" stroke="white" stroke-linecap="round" stroke-linejoin="round"/>
</svg>
