<svg width="11" height="11" viewBox="0 0 11 11" fill="none" xmlns="http://www.w3.org/2000/svg">
<path d="M10.0837 5.08752V3.16252C10.0837 1.55835 9.44199 0.916687 7.83783 0.916687H5.91283C4.30866 0.916687 3.66699 1.55835 3.66699 3.16252V3.66669H5.08783C6.69199 3.66669 7.33366 4.30835 7.33366 5.91252V7.33335H7.83783C9.44199 7.33335 10.0837 6.69169 10.0837 5.08752Z" stroke="#242424" stroke-linecap="round" stroke-linejoin="round"/>
<path d="M7.33366 7.83752V5.91252C7.33366 4.30835 6.69199 3.66669 5.08783 3.66669H3.16283C1.55866 3.66669 0.916992 4.30835 0.916992 5.91252V7.83752C0.916992 9.44169 1.55866 10.0834 3.16283 10.0834H5.08783C6.69199 10.0834 7.33366 9.44169 7.33366 7.83752Z" stroke="#242424" stroke-linecap="round" stroke-linejoin="round"/>
<path d="M2.78711 6.87501L3.68086 7.76876L5.46378 5.98126" stroke="#242424" stroke-linecap="round" stroke-linejoin="round"/>
</svg>
