<svg width="12" height="12" viewBox="0 0 12 12" fill="none" xmlns="http://www.w3.org/2000/svg">
<path d="M6.01029 1.455C4.35529 1.455 3.01029 2.8 3.01029 4.455V5.9C3.01029 6.205 2.88029 6.67 2.72529 6.93L2.15029 7.885C1.79529 8.475 2.04029 9.13 2.69029 9.35C4.84529 10.07 7.17029 10.07 9.32529 9.35C9.93029 9.15 10.1953 8.435 9.86529 7.885L9.29029 6.93C9.14029 6.67 9.01029 6.205 9.01029 5.9V4.455C9.01029 2.805 7.66029 1.455 6.01029 1.455Z" stroke="#D1D1D1" stroke-width="1.2" stroke-miterlimit="10" stroke-linecap="round"/>
<path d="M6.93496 1.6C6.77996 1.555 6.61996 1.52 6.45496 1.5C5.97496 1.44 5.51496 1.475 5.08496 1.6C5.22996 1.23 5.58996 0.970001 6.00996 0.970001C6.42996 0.970001 6.78996 1.23 6.93496 1.6Z" stroke="#D1D1D1" stroke-width="1.2" stroke-miterlimit="10" stroke-linecap="round" stroke-linejoin="round"/>
<path d="M7.50977 9.53C7.50977 10.355 6.83477 11.03 6.00977 11.03C5.59977 11.03 5.21977 10.86 4.94977 10.59C4.67977 10.32 4.50977 9.94 4.50977 9.53" stroke="#D1D1D1" stroke-width="1.2" stroke-miterlimit="10"/>
</svg>
