<svg width="12" height="12" viewBox="0 0 12 12" fill="none" xmlns="http://www.w3.org/2000/svg">
<path d="M1.5 4.555V7.44C1.5 8.5 1.5 8.5 2.5 9.175L5.25 10.765C5.665 11.005 6.34 11.005 6.75 10.765L9.5 9.175C10.5 8.5 10.5 8.5 10.5 7.445V4.555C10.5 3.5 10.5 3.5 9.5 2.825L6.75 1.235C6.34 0.995 5.665 0.995 5.25 1.235L2.5 2.825C1.5 3.5 1.5 3.5 1.5 4.555Z" stroke="#D1D1D1" stroke-width="1.2" stroke-linecap="round" stroke-linejoin="round"/>
<path d="M6 7.5C6.82843 7.5 7.5 6.82843 7.5 6C7.5 5.17157 6.82843 4.5 6 4.5C5.17157 4.5 4.5 5.17157 4.5 6C4.5 6.82843 5.17157 7.5 6 7.5Z" stroke="#D1D1D1" stroke-width="1.2" stroke-linecap="round" stroke-linejoin="round"/>
</svg>
