<svg width="11" height="11" viewBox="0 0 11 11" fill="none" xmlns="http://www.w3.org/2000/svg">
<path d="M5.49967 5.49999C6.76533 5.49999 7.79134 4.47398 7.79134 3.20832C7.79134 1.94267 6.76533 0.916656 5.49967 0.916656C4.23402 0.916656 3.20801 1.94267 3.20801 3.20832C3.20801 4.47398 4.23402 5.49999 5.49967 5.49999Z" stroke="white" stroke-linecap="round" stroke-linejoin="round"/>
<path d="M8.80441 7.21418L7.18189 8.83669C7.11772 8.90086 7.05814 9.02001 7.04439 9.10709L6.95731 9.72583C6.92523 9.95042 7.08106 10.1063 7.30565 10.0742L7.92439 9.98709C8.01147 9.97334 8.13523 9.91376 8.19482 9.84959L9.81731 8.2271C10.0969 7.94752 10.2298 7.62209 9.81731 7.20959C9.40939 6.80167 9.08399 6.93459 8.80441 7.21418Z" stroke="white" stroke-miterlimit="10" stroke-linecap="round" stroke-linejoin="round"/>
<path d="M8.57129 7.44791C8.70879 7.94291 9.09378 8.32789 9.58878 8.46539" stroke="white" stroke-miterlimit="10" stroke-linecap="round" stroke-linejoin="round"/>
<path d="M1.5625 10.0833C1.5625 8.30958 3.3271 6.875 5.4996 6.875C5.97626 6.875 6.43458 6.94375 6.86083 7.07208" stroke="white" stroke-linecap="round" stroke-linejoin="round"/>
</svg>
