<svg width="12" height="12" viewBox="0 0 12 12" fill="none" xmlns="http://www.w3.org/2000/svg">
<path d="M10.7795 5.37L10.0995 4.58C9.96945 4.43 9.86445 4.15 9.86445 3.95V3.1C9.86445 2.57 9.42945 2.135 8.89945 2.135H8.04945C7.85445 2.135 7.56945 2.03 7.41945 1.9L6.62945 1.22C6.28445 0.924999 5.71945 0.924999 5.36945 1.22L4.58445 1.905C4.43445 2.03 4.14945 2.135 3.95445 2.135H3.08945C2.55945 2.135 2.12445 2.57 2.12445 3.1V3.955C2.12445 4.15 2.01945 4.43 1.89445 4.58L1.21945 5.375C0.929453 5.72 0.929453 6.28 1.21945 6.625L1.89445 7.42C2.01945 7.57 2.12445 7.85 2.12445 8.045V8.9C2.12445 9.43 2.55945 9.865 3.08945 9.865H3.95445C4.14945 9.865 4.43445 9.97 4.58445 10.1L5.37445 10.78C5.71945 11.075 6.28445 11.075 6.63445 10.78L7.42445 10.1C7.57445 9.97 7.85445 9.865 8.05445 9.865H8.90445C9.43445 9.865 9.86945 9.43 9.86945 8.9V8.05C9.86945 7.855 9.97445 7.57 10.1045 7.42L10.7845 6.63C11.0745 6.285 11.0745 5.715 10.7795 5.37ZM8.07945 5.055L5.66445 7.47C5.59445 7.54 5.49945 7.58 5.39945 7.58C5.29945 7.58 5.20445 7.54 5.13445 7.47L3.92445 6.26C3.77945 6.115 3.77945 5.875 3.92445 5.73C4.06945 5.585 4.30945 5.585 4.45445 5.73L5.39945 6.675L7.54945 4.525C7.69445 4.38 7.93445 4.38 8.07945 4.525C8.22445 4.67 8.22445 4.91 8.07945 5.055Z" fill="white"/>
</svg>
